#!OML:ASF F:\VICON\USERDATA\INSTALL\rory3\rory3.ASF
:FULLY-SPECIFIED
:DEGREES
69
root -0.38640105865327573 16.68547162135416 37.10707935579903 5.741694053980304 -4.451913599943717 -6.245944469197001
lfemur -36.296865069320184 -3.8021975717957397 -11.508495843269985
ltibia 35.414623251573964
lfoot 3.598576371299414 -2.050084922311262
ltoes -6.961807127950019
rfemur 13.964815980503513 3.6112586981531796 36.292233180282466
rtibia 50.7021935728829
rfoot -10.186003739140425 -2.525554855314853
rtoes -14.22806539335999
lowerback 13.367010873124501 3.0316650854468783 6.435894267085017
upperback -1.2276576874869485 5.233390319446816 2.2915282710014315
thorax -8.98004124166327 2.2262122119696777 -2.913041512496223
lowerneck -20.95032014401697 -3.861992997648975 -1.713914632525294
upperneck 12.055313949435295 -5.598735192795176 3.389220558916629
head 7.303109140828414 -2.2847590682127286 0.7658330947125946
lclavicle -9.710295455841781e-16 2.3332716660057403e-15
lhumerus -66.11440441933097 -2.755381148618282 92.68548958959711
lradius 91.64007745190244
lwrist 28.205464714881227
lhand -24.8333333040792 2.371049760195097
lfingers 7.12502
lthumb 1.6725749290614036 32.34610890238337
rclavicle -9.710295455841781e-16 2.3332716660057403e-15
rhumerus -34.84766258904913 14.935792135401854 -100.06672586229105
rradius 116.4757169368353
rwrist -13.00542344591323
rhand -17.897046906654932 40.76602469198358
rfingers 7.12502
rthumb 8.369432198471841 11.002765387688225
70
root -0.300679472987156 16.714858921497544 37.55282817407999 4.763419022508835 -4.092819449117878 -5.541113891199607
lfemur -36.351569280519 -2.395290518084847 -13.850077389132977
ltibia 41.2739630128548
lfoot 4.730799619798136 -5.044439469613712
ltoes -5.103234678307732
rfemur 13.724759849648255 2.120828672906245 34.50541520105575
rtibia 60.46098350990125
rfoot 0.7080963793115664 0.8534917600154044
rtoes -14.75877394624285
lowerback 13.175194447151934 3.0711540895402876 5.638241906206774
upperback -1.2541413468037046 5.169037708455465 1.8114917348365347
thorax -8.990525079370173 2.2127325692195527 -2.834818974494504
lowerneck -20.53348118581231 -4.302896776547959 -1.7413369073286762
upperneck 12.417578691401134 -6.220775262440902 3.48783570785617
head 7.360762685007296 -2.57956828155805 0.7635231825843465
lclavicle -1.4102281379017355e-15 2.014773827569659e-15
lhumerus -68.74161127855959 -1.4623203062374035 91.37152038774313
lradius 89.34409133500415
lwrist 26.87745771784484
lhand -23.94595336322273 2.691125437650416
lfingers 7.12502
lthumb 2.529532762121959 32.66487193254749
rclavicle -1.4102281379017355e-15 2.014773827569659e-15
rhumerus -36.89961501936213 13.757068887778992 -99.90193320923211
rradius 116.46397248825822
rwrist -12.835650946321447
rhand -17.85936035189054 40.64111229194883
rfingers 7.12502
rthumb 8.405829054401964 10.913649018318953
71
root -0.19055267930930303 16.893895370963076 37.95061327921445 3.627478817694487 -3.7874969684823747 -4.589389963085326
lfemur -35.195082530281084 -1.0977057363776221 -16.6488029277548
ltibia 47.30356475452582
lfoot 4.507378444086047 -7.2916145304009055
ltoes -3.1557908186310213
rfemur 10.16879531158757 0.34711129964684484 32.22746874709257
rtibia 74.15499734143162
rfoot 15.865560666713607 3.1727091531135665
rtoes -6.363567158187559
lowerback 13.293570706409687 3.0941846646810425 4.561381391935774
upperback -1.2276772176483428 5.053654726997147 1.218119202281285
thorax -9.086428006003446 2.1802970635711003 -2.619650254987042
lowerneck -20.2380834480783 -4.553400235873318 -1.806065069598338
upperneck 12.79656738214889 -6.56797951157343 3.5824873697937814
head 7.434679146381569 -2.7408032310867982 0.7805769839704513
lclavicle -1.8022545686478755e-15 1.7303843707570861e-15
lhumerus -70.47230400488895 -1.0964566983391375 90.79273294354886
lradius 88.68418807973902
lwrist 26.86450573300794
lhand -23.385427851645446 3.068378313740873
lfingers 7.12502
lthumb 3.070817304179898 33.035861937102425
rclavicle -1.8022545686478755e-15 1.7303843707570861e-15
rhumerus -39.783443503698976 12.496607172069396 -99.71036005488119
rradius 116.21714820482573
rwrist -12.513352595137068
rhand -17.604794608439107 40.563164592402906
rfingers 7.12502
rthumb 8.651496296637628 10.891149815453643
72
root -0.08565240713871453 17.130580242610677 38.231955085939106 2.563361610744503 -3.8161399892493475 -3.549872253128546
lfemur -32.47233912007677 -0.5191601480646492 -19.482362454355425
ltibia 50.41802107290972
lfoot 1.8461336090826366 -7.855990127409975
ltoes -2.1908885763049675
rfemur 2.3616412926977013 -1.5507482602852316 29.74719136205591
rtibia 89.37481951988696
rfoot 29.143886956361605 2.5552643373780795
rtoes 7.342873906495495
lowerback 13.807670539361617 3.0329624937391415 3.2305711531234613
upperback -1.0867262485587386 4.800427159059484 0.6424993158044006
thorax -9.270874332008967 2.0921620849183866 -2.231142387450023
lowerneck -20.21264046372605 -4.410426172709713 -1.9079746591601991
upperneck 12.904579318089086 -6.373763306287545 3.604576719325654
head 7.463217935646203 -2.6359165756776015 0.813214417384801
lclavicle -2.5192212662968847e-15 1.210160465112428e-15
lhumerus -70.57300499601092 -1.9965124847341613 91.2623124404077
lradius 89.7802249838378
lwrist 28.40224926339983
lhand -23.79888294976023 2.9120513738231066
lfingers 7.12502
lthumb 2.671502556392744 32.87361213198606
rclavicle -2.5192212662968847e-15 1.210160465112428e-15
rhumerus -42.62254213930882 11.371442725077053 -99.59706402201586
rradius 115.50578739508887
rwrist -11.988399326324556
rhand -17.157809439411487 40.47255146133175
rfingers 7.12502
rthumb 9.08283778837646 10.846606425026293
73
root -0.020531511531596658 17.341007358838663 39.07523369150873 1.723886095487979 -3.9074215571787767 -2.5476361833784527
lfemur -27.752626459272815 -0.7731750372094675 -21.814214876217566
ltibia 50.62168353760934
lfoot -1.930552817364445 -6.83998727758923
ltoes -1.9636435861431707
rfemur -7.716893073900033 -3.4985641132668728 27.650243395195847
rtibia 103.784977897655
rfoot 33.97546162783629 -0.5540636959360379
rtoes 18.209793625546318
lowerback 14.519360162760089 2.825025426069927 1.9615876974937803
upperback -0.7844774054991557 4.351981627925289 0.2826831516947148
thorax -9.426512921122884 1.9202734446132657 -1.5731372427396835
lowerneck -20.27115876146081 -3.889891070549268 -2.008601232375597
upperneck 12.765951316897333 -5.654578121170087 3.544660279098843
head 7.437794334550226 -2.283392658898232 0.8558835034065825
lclavicle -2.778617945613584e-15 1.021883710339105e-15
lhumerus -68.49122914243453 -3.7368390116662944 92.5213776477536
lradius 91.96857711835817
lwrist 30.568216254078923
lhand -24.989625943445034 1.904002066233387
lfingers 7.12502
lthumb 1.5215702396766433 31.86565849165101
rclavicle -2.778617945613584e-15 1.021883710339105e-15
rhumerus -44.54191811298366 10.4880772964603 -99.48300282608935
rradius 114.54418851150834
rwrist -11.27024946091553
rhand -16.644279956386907 40.319911555866035
rfingers 7.12502
rthumb 9.578411674032077 10.695048735985768
74
root 0.006214407426307966 17.503123524261703 40.427493396822605 1.183226792863315 -3.542062716753326 -1.740129040457382
lfemur -22.01212178940313 -1.4981988722150887 -23.575602030906943
ltibia 49.48596305784471
lfoot -5.373559684776954 -5.420966626976556
ltoes -1.976065699652926
rfemur -17.712634660830005 -5.451892571988207 26.365065823132706
rtibia 114.21147921870855
rfoot 29.399825536376802 -3.788563944827039
rtoes 20.869764444187286
lowerback 15.123456315410097 2.4349925529821785 0.9940345604987166
upperback -0.39802338032255 3.677661406515385 0.18268741541391376
thorax -9.467825430147212 1.647122974726872 -0.7432265368099132
lowerneck -20.143514729229295 -3.250605368651257 -2.1226410755862357
upperneck 12.68107584044779 -4.742246033802157 3.453221601389851
head 7.409506781071312 -1.8556161562558562 0.9093665222575861
lclavicle -2.408218762941908e-15 1.2905925161428144e-15
lhumerus -64.45468977452735 -5.7887075858311885 93.8913221271698
lradius 94.39367346354683
lwrist 32.04774060159255
lhand -26.010484878319588 0.5518856625755035
lfingers 7.12502
lthumb 0.5357261712959708 30.517824981922832
rclavicle -2.408218762941908e-15 1.2905925161428144e-15
rhumerus -45.80839971136862 9.751039576090555 -99.24616834121895
rradius 113.67757740799529
rwrist -10.601490743794484
rhand -16.20229277332415 40.11084877128931
rfingers 7.12502
rthumb 10.004967254770422 10.472553200216351
75
root 0.024062953865731845 17.599948398673053 42.11981436232754 0.9533240945757475 -2.6559614809064165 -1.20913508374586
lfemur -16.64861750382763 -2.244965384579794 -24.865640466371083
ltibia 48.23544910113658
lfoot -8.432423409587168 -4.402817560242612
ltoes -1.9623626345714662
rfemur -26.783427177655543 -7.222545244942738 25.92525863011027
rtibia 118.17270764826927
rfoot 19.93929790139974 -5.665981259993199
rtoes 16.637966097400586
lowerback 15.599960107791354 1.8992259364075228 0.31500035205948884
upperback -0.07940920280779595 2.825626219521432 0.26550980521743917
thorax -9.473069842353315 1.292098190418792 0.08131322580417943
lowerneck -19.88117953707192 -2.7777953171246796 -2.3284117898415375
upperneck 12.756397082843606 -4.0062612336544445 3.4446655146165877
head 7.4071405886622435 -1.5263467091364862 0.996986434975262
lclavicle -1.9389902019576e-15 1.6311883527897284e-15
lhumerus -59.059564792844604 -8.120799652199786 94.97197025333715
lradius 96.70890676076667
lwrist 32.710387111146176
lhand -26.408736268570664 -0.39996713061070044
lfingers 7.12502
lthumb 0.15114840608348445 29.570862830329958
rclavicle -1.9389902019576e-15 1.6311883527897284e-15
rhumerus -47.220826350243826 9.354295222311656 -99.07260379747832
rradius 113.21332797597786
rwrist -10.331869448509588
rhand -15.876499963584502 39.86280082945296
rfingers 7.12502
rthumb 10.319369487323405 10.241804782301745
